{"accessors":[{"bufferView":0,"byteOffset":0,"componentType":5126,"count":70,"max":[3.93964862823486,2.98942422866821,1.50589191913605],"min":[-4.06035089492798,-0.0105758365243673,-1.49410820007324],"normalized":false,"type":"VEC3"},{"bufferView":1,"byteOffset":0,"componentType":5126,"count":70,"max":[1.0,1.0,1.0,1.0],"min":[-1.0,-0.0000152592547237873,-1.0,-1.0],"normalized":false,"type":"VEC4"},{"bufferView":2,"byteOffset":0,"componentType":5126,"count":70,"max":[1.0,1.0,1.0],"min":[-1.0,-1.0,-1.0],"normalized":false,"type":"VEC3"},{"bufferView":3,"byteOffset":0,"componentType":5126,"count":70,"max":[0.998514354228973,0.999640345573425],"min":[0.0,0.0],"normalized":false,"type":"VEC2"},{"bufferView":4,"byteOffset":0,"componentType":5123,"count":126,"max":[69.0],"min":[0.0],"normalized":false,"type":"SCALAR"},{"bufferView":5,"byteOffset":0,"componentType":5126,"count":24,"max":[3.9396493434906,2.91905689239502,1.48925483226776],"min":[-4.06035089492798,-0.0809430554509163,-1.51074528694153],"normalized":false,"type":"VEC3"},{"bufferView":6,"byteOffset":0,"componentType":5126,"count":24,"max":[1.0,0.0,1.0,1.0],"min":[-1.0,-0.0000152592547237873,-1.0,-1.0],"normalized":false,"type":"VEC4"},{"bufferView":7,"byteOffset":0,"componentType":5126,"count":24,"max":[1.0,1.0,1.0],"min":[-1.0,-1.0,-1.0],"normalized":false,"type":"VEC3"},{"bufferView":8,"byteOffset":0,"componentType":5126,"count":24,"max":[0.759288966655731,0.999640345573425],"min":[0.0,0.0],"normalized":false,"type":"VEC2"},{"bufferView":9,"byteOffset":0,"componentType":5123,"count":36,"max":[23.0],"min":[0.0],"normalized":false,"type":"SCALAR"}],"asset":{"generator":"Godot Engine v4.4.stable.arch_linux@unknown","version":"2.0"},"bufferViews":[{"buffer":0,"byteLength":840,"byteOffset":0,"byteStride":12,"target":34962},{"buffer":0,"byteLength":1120,"byteOffset":840,"byteStride":16,"target":34962},{"buffer":0,"byteLength":840,"byteOffset":1960,"byteStride":12,"target":34962},{"buffer":0,"byteLength":560,"byteOffset":2800,"byteStride":8,"target":34962},{"buffer":0,"byteLength":252,"byteOffset":3360,"target":34963},{"buffer":0,"byteLength":288,"byteOffset":3612,"byteStride":12,"target":34962},{"buffer":0,"byteLength":384,"byteOffset":3900,"byteStride":16,"target":34962},{"buffer":0,"byteLength":288,"byteOffset":4284,"byteStride":12,"target":34962},{"buffer":0,"byteLength":192,"byteOffset":4572,"byteStride":8,"target":34962},{"buffer":0,"byteLength":72,"byteOffset":4764,"target":34963}],"buffers":[{"byteLength":4836,"uri":"containers0.bin"}],"extensionsUsed":["GODOT_single_root","KHR_materials_emissive_strength"],"images":[{"uri":"textures%2FCargo_1_open_albedo.png"},{"uri":"textures%2FCargo_1_close_albedo.png"}],"materials":[{"emissiveFactor":[0.0,0.0,0.0],"extensions":{"KHR_materials_emissive_strength":{"emissiveStrength":0.0}},"name":"Cargo_1_open2","pbrMetallicRoughness":{"baseColorFactor":[1.0,1.0,1.0,1.0],"baseColorTexture":{"index":0},"metallicFactor":0.0,"roughnessFactor":1.0}},{"emissiveFactor":[0.0,0.0,0.0],"extensions":{"KHR_materials_emissive_strength":{"emissiveStrength":0.0}},"name":"Cargo_1_close2","pbrMetallicRoughness":{"baseColorFactor":[1.0,1.0,1.0,1.0],"baseColorTexture":{"index":1},"metallicFactor":0.0,"roughnessFactor":1.0}}],"meshes":[{"extras":{"targetNames":[]},"primitives":[{"attributes":{"NORMAL":2,"POSITION":0,"TANGENT":1,"TEXCOORD_0":3},"indices":4,"material":0,"mode":4}]},{"extras":{"targetNames":[]},"primitives":[{"attributes":{"NORMAL":7,"POSITION":5,"TANGENT":6,"TEXCOORD_0":8},"indices":9,"material":1,"mode":4}]}],"nodes":[{"children":[1,2],"name":"Containers"},{"mesh":0,"name":"Cargo_1_open","rotation":[0.0,0.269449234008789,0.0,0.963014602661133],"translation":[-1.71519994735718,0.0,-6.18254995346069]},{"mesh":1,"name":"Cargo_1_close"}],"samplers":[{"magFilter":9729,"minFilter":9987,"wrapS":10497,"wrapT":10497}],"scene":0,"scenes":[{"nodes":[0]}],"textures":[{"sampler":0,"source":0},{"sampler":0,"source":1}]}